<mxfile host="Electron" modified="2024-07-14T10:41:03.800Z" agent="Mozilla/5.0 (Windows NT 10.0; Win64; x64) AppleWebKit/537.36 (KHTML, like Gecko) draw.io/24.6.4 Chrome/124.0.6367.207 Electron/30.0.6 Safari/537.36" etag="OfkWRRMRxG7VVbo1l7ZH" version="24.6.4" type="device">
  <diagram name="Page-1" id="74e2e168-ea6b-b213-b513-2b3c1d86103e">
    <mxGraphModel dx="1434" dy="836" grid="1" gridSize="10" guides="1" tooltips="1" connect="1" arrows="1" fold="1" page="1" pageScale="1" pageWidth="1100" pageHeight="850" background="none" math="0" shadow="0">
      <root>
        <mxCell id="0" />
        <mxCell id="1" parent="0" />
        <mxCell id="77e6c97f196da883-1" value="sistem absen siswa smk al-hasanaen braim" style="swimlane;html=1;childLayout=stackLayout;startSize=20;rounded=0;shadow=0;labelBackgroundColor=none;strokeWidth=1;fontFamily=Verdana;fontSize=8;align=center;" parent="1" vertex="1">
          <mxGeometry x="280" y="50" width="510" height="550" as="geometry" />
        </mxCell>
        <mxCell id="77e6c97f196da883-2" value="siswa" style="swimlane;html=1;startSize=20;" parent="77e6c97f196da883-1" vertex="1">
          <mxGeometry y="20" width="160" height="530" as="geometry" />
        </mxCell>
        <mxCell id="77e6c97f196da883-8" value="kehadiran siswa" style="rounded=1;whiteSpace=wrap;html=1;shadow=0;labelBackgroundColor=none;strokeWidth=1;fontFamily=Verdana;fontSize=8;align=center;" parent="77e6c97f196da883-2" vertex="1">
          <mxGeometry x="20" y="65" width="100" height="60" as="geometry" />
        </mxCell>
        <mxCell id="77e6c97f196da883-26" style="edgeStyle=orthogonalEdgeStyle;rounded=1;html=1;labelBackgroundColor=none;startArrow=none;startFill=0;startSize=5;endArrow=classicThin;endFill=1;endSize=5;jettySize=auto;orthogonalLoop=1;strokeWidth=1;fontFamily=Verdana;fontSize=8;entryX=0;entryY=0.5;entryDx=0;entryDy=0;" parent="77e6c97f196da883-1" source="77e6c97f196da883-8" target="5z5gDt_HnLbdu31rzV3i-1" edge="1">
          <mxGeometry relative="1" as="geometry">
            <mxPoint x="190" y="115" as="targetPoint" />
          </mxGeometry>
        </mxCell>
        <mxCell id="5z5gDt_HnLbdu31rzV3i-4" style="edgeStyle=orthogonalEdgeStyle;rounded=0;orthogonalLoop=1;jettySize=auto;html=1;entryX=0.5;entryY=0;entryDx=0;entryDy=0;entryPerimeter=0;" edge="1" parent="77e6c97f196da883-1" source="5z5gDt_HnLbdu31rzV3i-1" target="5z5gDt_HnLbdu31rzV3i-3">
          <mxGeometry relative="1" as="geometry" />
        </mxCell>
        <mxCell id="77e6c97f196da883-3" value="guru" style="swimlane;html=1;startSize=20;" parent="77e6c97f196da883-1" vertex="1">
          <mxGeometry x="160" y="20" width="190" height="530" as="geometry" />
        </mxCell>
        <mxCell id="5z5gDt_HnLbdu31rzV3i-1" value="guru menginput daftar hadoir" style="rhombus;whiteSpace=wrap;html=1;" vertex="1" parent="77e6c97f196da883-3">
          <mxGeometry x="40" y="45" width="110" height="100" as="geometry" />
        </mxCell>
        <mxCell id="5z5gDt_HnLbdu31rzV3i-12" value="nilai&amp;nbsp;&lt;div&gt;yg telah&lt;/div&gt;&lt;div&gt;direkap&lt;/div&gt;" style="triangle;whiteSpace=wrap;html=1;direction=south;" vertex="1" parent="77e6c97f196da883-3">
          <mxGeometry x="40" y="270" width="110" height="90" as="geometry" />
        </mxCell>
        <mxCell id="77e6c97f196da883-4" value="staf administrasi" style="swimlane;html=1;startSize=20;" parent="77e6c97f196da883-1" vertex="1">
          <mxGeometry x="350" y="20" width="160" height="530" as="geometry" />
        </mxCell>
        <mxCell id="5z5gDt_HnLbdu31rzV3i-6" style="edgeStyle=orthogonalEdgeStyle;rounded=0;orthogonalLoop=1;jettySize=auto;html=1;entryX=0.5;entryY=0;entryDx=0;entryDy=0;entryPerimeter=0;" edge="1" parent="77e6c97f196da883-4" source="5z5gDt_HnLbdu31rzV3i-3" target="5z5gDt_HnLbdu31rzV3i-9">
          <mxGeometry relative="1" as="geometry">
            <mxPoint x="120" y="325" as="targetPoint" />
          </mxGeometry>
        </mxCell>
        <mxCell id="5z5gDt_HnLbdu31rzV3i-3" value="data kehadir siswa" style="shape=cylinder3;whiteSpace=wrap;html=1;boundedLbl=1;backgroundOutline=1;size=15;" vertex="1" parent="77e6c97f196da883-4">
          <mxGeometry x="60" y="135" width="60" height="80" as="geometry" />
        </mxCell>
        <mxCell id="5z5gDt_HnLbdu31rzV3i-9" value="rekapan kehadiran" style="shape=cylinder3;whiteSpace=wrap;html=1;boundedLbl=1;backgroundOutline=1;size=15;" vertex="1" parent="77e6c97f196da883-4">
          <mxGeometry x="60" y="275" width="60" height="80" as="geometry" />
        </mxCell>
        <mxCell id="5z5gDt_HnLbdu31rzV3i-10" style="edgeStyle=orthogonalEdgeStyle;rounded=0;orthogonalLoop=1;jettySize=auto;html=1;entryX=0.5;entryY=0;entryDx=0;entryDy=0;" edge="1" parent="77e6c97f196da883-1" source="5z5gDt_HnLbdu31rzV3i-9" target="5z5gDt_HnLbdu31rzV3i-12">
          <mxGeometry relative="1" as="geometry">
            <mxPoint x="320" y="335" as="targetPoint" />
          </mxGeometry>
        </mxCell>
      </root>
    </mxGraphModel>
  </diagram>
</mxfile>
